<?xml version="1.0" encoding="UTF-8"?>
<!DOCTYPE svg PUBLIC "-//W3C//DTD SVG 1.1//EN" "http://www.w3.org/Graphics/SVG/1.1/DTD/svg11.dtd">
<!-- Creator: CorelDRAW 2021 (64-Bit) -->
<svg xmlns="http://www.w3.org/2000/svg" xml:space="preserve" width="46.5004mm" height="20.7801mm" version="1.1" style="shape-rendering:geometricPrecision; text-rendering:geometricPrecision; image-rendering:optimizeQuality; fill-rule:evenodd; clip-rule:evenodd"
viewBox="0 0 151.22 67.58"
 xmlns:xlink="http://www.w3.org/1999/xlink"
 xmlns:xodm="http://www.corel.com/coreldraw/odm/2003">
 <defs>
  <style type="text/css">
   <![CDATA[
    .fil0 {fill:white}
    .fil1 {fill:black;fill-rule:nonzero}
   ]]>
  </style>
 </defs>
 <g id="Слой_x0020_1">
  <metadata id="CorelCorpID_0Corel-Layer"/>
  <rect class="fil0" x="-0" y="0" width="151.22" height="67.58"/>
  <path class="fil1" d="M15.4 50.3l11.08 -17.2 -10.05 -15.78 7.57 0 6.32 9.82 6.32 -9.82 7.58 0 -10.07 15.79 11.05 17.19 -7.78 0 -7.11 -11.17 -7.12 11.17 -7.79 0 0 -0zm62.04 0l-7 0 -2.77 -7.51 -12.87 0 -2.67 7.51 -6.87 0 12.46 -32.98 6.87 0 12.85 32.98zm-11.87 -13.08l-4.46 -12.21 -4.33 12.21 8.79 0 -0 0zm34.75 0.92l6.27 1.98c-0.96,3.63 -2.57,6.33 -4.81,8.09 -2.24,1.76 -5.08,2.64 -8.52,2.64 -4.26,0 -7.77,-1.5 -10.52,-4.49 -2.74,-2.99 -4.12,-7.09 -4.12,-12.28 0,-5.49 1.38,-9.76 4.14,-12.8 2.76,-3.04 6.39,-4.56 10.88,-4.56 3.93,0 7.12,1.2 9.57,3.58 1.46,1.41 2.56,3.44 3.28,6.09l-6.41 1.57c-0.38,-1.7 -1.17,-3.05 -2.38,-4.05 -1.21,-0.99 -2.67,-1.48 -4.39,-1.48 -2.38,0 -4.32,0.87 -5.8,2.63 -1.49,1.75 -2.23,4.59 -2.23,8.52 0,4.16 0.73,7.13 2.19,8.9 1.46,1.77 3.36,2.66 5.7,2.66 1.72,0 3.21,-0.56 4.45,-1.69 1.24,-1.13 2.14,-2.89 2.67,-5.31l0 -0zm13.03 -20.82l22.47 0 0 32.98 -6.5 0 0 -27.41 -9.64 0 0 14.08c0,4.03 -0.13,6.85 -0.39,8.44 -0.26,1.6 -0.9,2.85 -1.91,3.74 -1.02,0.89 -2.6,1.34 -4.76,1.34 -0.76,0 -2.14,-0.08 -4.14,-0.22l0 -5.17 1.45 0.02c1.35,0 2.27,-0.18 2.73,-0.56 0.47,-0.38 0.7,-1.3 0.7,-2.76l-0.02 -5.67 0 -18.81 0 0z"/>
 </g>
</svg>
